<mxfile host="app.diagrams.net" modified="2022-01-24T23:31:45.893Z" agent="5.0 (Windows NT 10.0; Win64; x64) AppleWebKit/537.36 (KHTML, like Gecko) Chrome/97.0.4692.71 Safari/537.36" etag="aph8ukDeDDcrtLI3Ok_U" version="16.4.6" type="github">
  <diagram id="C5RBs43oDa-KdzZeNtuy" name="Page-1">
    <mxGraphModel dx="782" dy="436" grid="1" gridSize="10" guides="1" tooltips="1" connect="1" arrows="1" fold="1" page="1" pageScale="1" pageWidth="827" pageHeight="1169" math="0" shadow="0">
      <root>
        <mxCell id="WIyWlLk6GJQsqaUBKTNV-0" />
        <mxCell id="WIyWlLk6GJQsqaUBKTNV-1" parent="WIyWlLk6GJQsqaUBKTNV-0" />
        <mxCell id="HRx_nLISSj64O9RqiK4--10" style="edgeStyle=orthogonalEdgeStyle;rounded=0;orthogonalLoop=1;jettySize=auto;html=1;exitX=1;exitY=0.5;exitDx=0;exitDy=0;endArrow=ERzeroToMany;endFill=0;startArrow=ERoneToMany;startFill=0;endSize=12;startSize=12;" edge="1" parent="WIyWlLk6GJQsqaUBKTNV-1" source="HRx_nLISSj64O9RqiK4--0" target="HRx_nLISSj64O9RqiK4--9">
          <mxGeometry relative="1" as="geometry" />
        </mxCell>
        <mxCell id="HRx_nLISSj64O9RqiK4--11" value="Assigned To" style="edgeLabel;html=1;align=center;verticalAlign=middle;resizable=0;points=[];" vertex="1" connectable="0" parent="HRx_nLISSj64O9RqiK4--10">
          <mxGeometry x="0.1253" y="-4" relative="1" as="geometry">
            <mxPoint as="offset" />
          </mxGeometry>
        </mxCell>
        <mxCell id="HRx_nLISSj64O9RqiK4--0" value="EMPLOYEE&lt;br&gt;&lt;div style=&quot;text-align: left&quot;&gt;&lt;span&gt;&lt;u&gt;Employee ID&lt;/u&gt;&lt;/span&gt;&lt;/div&gt;&lt;div style=&quot;text-align: left&quot;&gt;&lt;span&gt;EmployeeName&lt;/span&gt;&lt;/div&gt;&lt;div style=&quot;text-align: left&quot;&gt;&lt;span&gt;EmployeeBirthDate&lt;/span&gt;&lt;/div&gt;" style="rounded=0;whiteSpace=wrap;html=1;" vertex="1" parent="WIyWlLk6GJQsqaUBKTNV-1">
          <mxGeometry x="200" y="180" width="130" height="90" as="geometry" />
        </mxCell>
        <mxCell id="HRx_nLISSj64O9RqiK4--9" value="PROJECT&lt;br&gt;&lt;div style=&quot;text-align: left&quot;&gt;&lt;span&gt;&lt;u&gt;ProjectID&lt;/u&gt;&lt;/span&gt;&lt;/div&gt;&lt;div style=&quot;text-align: left&quot;&gt;&lt;span&gt;ProjectName&lt;/span&gt;&lt;/div&gt;&lt;div style=&quot;text-align: left&quot;&gt;ProjectStartDate&lt;/div&gt;" style="rounded=0;whiteSpace=wrap;html=1;" vertex="1" parent="WIyWlLk6GJQsqaUBKTNV-1">
          <mxGeometry x="500" y="180" width="110" height="90" as="geometry" />
        </mxCell>
        <mxCell id="HRx_nLISSj64O9RqiK4--13" style="edgeStyle=orthogonalEdgeStyle;rounded=0;orthogonalLoop=1;jettySize=auto;html=1;exitX=0.5;exitY=1;exitDx=0;exitDy=0;startArrow=none;startFill=0;endArrow=none;endFill=0;startSize=12;endSize=12;dashed=1;" edge="1" parent="WIyWlLk6GJQsqaUBKTNV-1" source="HRx_nLISSj64O9RqiK4--12">
          <mxGeometry relative="1" as="geometry">
            <mxPoint x="430" y="220" as="targetPoint" />
          </mxGeometry>
        </mxCell>
        <mxCell id="HRx_nLISSj64O9RqiK4--12" value="Billing_Rate" style="whiteSpace=wrap;html=1;" vertex="1" parent="WIyWlLk6GJQsqaUBKTNV-1">
          <mxGeometry x="370" y="90" width="120" height="50" as="geometry" />
        </mxCell>
        <mxCell id="HRx_nLISSj64O9RqiK4--17" style="edgeStyle=orthogonalEdgeStyle;rounded=0;orthogonalLoop=1;jettySize=auto;html=1;exitX=1;exitY=0.5;exitDx=0;exitDy=0;startArrow=ERoneToMany;startFill=0;endArrow=ERmandOne;endFill=0;startSize=12;endSize=12;" edge="1" parent="WIyWlLk6GJQsqaUBKTNV-1" source="HRx_nLISSj64O9RqiK4--14" target="HRx_nLISSj64O9RqiK4--16">
          <mxGeometry relative="1" as="geometry" />
        </mxCell>
        <mxCell id="HRx_nLISSj64O9RqiK4--18" style="edgeStyle=orthogonalEdgeStyle;rounded=0;orthogonalLoop=1;jettySize=auto;html=1;exitX=0;exitY=0.5;exitDx=0;exitDy=0;dashed=1;startArrow=none;startFill=0;endArrow=none;endFill=0;startSize=12;endSize=12;" edge="1" parent="WIyWlLk6GJQsqaUBKTNV-1" source="HRx_nLISSj64O9RqiK4--14" target="HRx_nLISSj64O9RqiK4--15">
          <mxGeometry relative="1" as="geometry" />
        </mxCell>
        <mxCell id="HRx_nLISSj64O9RqiK4--19" value="" style="edgeStyle=orthogonalEdgeStyle;rounded=0;orthogonalLoop=1;jettySize=auto;html=1;startArrow=ERzeroToMany;startFill=0;endArrow=ERmandOne;endFill=0;startSize=12;endSize=12;" edge="1" parent="WIyWlLk6GJQsqaUBKTNV-1" source="HRx_nLISSj64O9RqiK4--14" target="HRx_nLISSj64O9RqiK4--15">
          <mxGeometry relative="1" as="geometry" />
        </mxCell>
        <mxCell id="HRx_nLISSj64O9RqiK4--14" value="ASSIGNMENT&lt;br&gt;&lt;div style=&quot;text-align: left&quot;&gt;&lt;span&gt;&lt;u&gt;AssignNo&lt;/u&gt;&lt;/span&gt;&lt;/div&gt;&lt;div style=&quot;text-align: left&quot;&gt;&lt;span&gt;BillingRate&lt;/span&gt;&lt;/div&gt;" style="rounded=1;whiteSpace=wrap;html=1;" vertex="1" parent="WIyWlLk6GJQsqaUBKTNV-1">
          <mxGeometry x="360" y="370" width="120" height="60" as="geometry" />
        </mxCell>
        <mxCell id="HRx_nLISSj64O9RqiK4--15" value="EMPLOYEE&lt;br&gt;&lt;div style=&quot;text-align: left&quot;&gt;&lt;span&gt;&lt;u&gt;Employee ID&lt;/u&gt;&lt;/span&gt;&lt;/div&gt;&lt;div style=&quot;text-align: left&quot;&gt;&lt;span&gt;EmployeeName&lt;/span&gt;&lt;/div&gt;&lt;div style=&quot;text-align: left&quot;&gt;&lt;span&gt;EmployeeBirthDate&lt;/span&gt;&lt;/div&gt;" style="rounded=0;whiteSpace=wrap;html=1;" vertex="1" parent="WIyWlLk6GJQsqaUBKTNV-1">
          <mxGeometry x="150" y="355" width="130" height="90" as="geometry" />
        </mxCell>
        <mxCell id="HRx_nLISSj64O9RqiK4--16" value="PROJECT&lt;br&gt;&lt;div style=&quot;text-align: left&quot;&gt;&lt;span&gt;&lt;u&gt;ProjectID&lt;/u&gt;&lt;/span&gt;&lt;/div&gt;&lt;div style=&quot;text-align: left&quot;&gt;&lt;span&gt;ProjectName&lt;/span&gt;&lt;/div&gt;&lt;div style=&quot;text-align: left&quot;&gt;ProjectStartDate&lt;/div&gt;" style="rounded=0;whiteSpace=wrap;html=1;" vertex="1" parent="WIyWlLk6GJQsqaUBKTNV-1">
          <mxGeometry x="560" y="355" width="110" height="90" as="geometry" />
        </mxCell>
      </root>
    </mxGraphModel>
  </diagram>
</mxfile>
